HIERARCHY
ROOT mixamorig:Hips
{
	OFFSET 0.000000 102.625267 -0.521241
	CHANNELS 6 Xposition Yposition Zposition Xrotation Yrotation Zrotation
	JOINT mixamorig:Spine
	{
		OFFSET 0.000000 5.645721 -0.031929
		CHANNELS 3 Xrotation Yrotation Zrotation
		JOINT mixamorig:Spine1
		{
			OFFSET 0.000000 6.586685 -0.037251
			CHANNELS 3 Xrotation Yrotation Zrotation
			JOINT mixamorig:Spine2
			{
				OFFSET 0.000000 7.527618 -0.042572
				CHANNELS 3 Xrotation Yrotation Zrotation
				JOINT mixamorig:Neck
				{
					OFFSET 0.000000 8.468590 -0.047894
					CHANNELS 3 Xrotation Yrotation Zrotation
					JOINT mixamorig:Head
					{
						OFFSET 0.000000 5.998901 -1.158958
						CHANNELS 3 Xrotation Yrotation Zrotation
						JOINT mixamorig:HeadTop_End
						{
							OFFSET 0.000000 21.748810 -4.201760
							CHANNELS 3 Xrotation Yrotation Zrotation
							End Site
							{
								OFFSET 0.000000 22.150970 0.000000
							}
						}
					}
				}
				JOINT mixamorig:LeftShoulder
				{
					OFFSET 3.414614 7.343132 -0.058928
					CHANNELS 3 Xrotation Yrotation Zrotation
					JOINT mixamorig:LeftArm
					{
						OFFSET 6.829548 -2.246910 -0.022071
						CHANNELS 3 Xrotation Yrotation Zrotation
						JOINT mixamorig:LeftForeArm
						{
							OFFSET 24.198503 -0.424179 0.257802
							CHANNELS 3 Xrotation Yrotation Zrotation
							JOINT mixamorig:LeftHand
							{
								OFFSET 21.584717 -0.002335 0.669575
								CHANNELS 3 Xrotation Yrotation Zrotation
								JOINT mixamorig:LeftHandThumb1
								{
									OFFSET 2.193897 -1.259628 1.956942
									CHANNELS 3 Xrotation Yrotation Zrotation
									JOINT mixamorig:LeftHandThumb2
									{
										OFFSET 1.755203 -1.007660 1.565605
										CHANNELS 3 Xrotation Yrotation Zrotation
										JOINT mixamorig:LeftHandThumb3
										{
											OFFSET 2.535126 -0.998764 1.490660
											CHANNELS 3 Xrotation Yrotation Zrotation
											JOINT mixamorig:LeftHandThumb4
											{
												OFFSET 2.398251 -0.721657 1.023775
												CHANNELS 3 Xrotation Yrotation Zrotation
												End Site
												{
													OFFSET 2.205696 -0.773872 1.362551
												}
											}
										}
									}
								}
								JOINT mixamorig:LeftHandIndex1
								{
									OFFSET 7.166248 -0.069405 2.369028
									CHANNELS 3 Xrotation Yrotation Zrotation
									JOINT mixamorig:LeftHandIndex2
									{
										OFFSET 2.989986 -0.015724 0.245918
										CHANNELS 3 Xrotation Yrotation Zrotation
										JOINT mixamorig:LeftHandIndex3
										{
											OFFSET 2.739197 -0.058952 0.219132
											CHANNELS 3 Xrotation Yrotation Zrotation
											JOINT mixamorig:LeftHandIndex4
											{
												OFFSET 2.326500 -0.032570 0.188458
												CHANNELS 3 Xrotation Yrotation Zrotation
												End Site
												{
													OFFSET 2.326485 -0.032578 0.188548
												}
											}
										}
									}
								}
								JOINT mixamorig:LeftHandMiddle1
								{
									OFFSET 7.394897 0.286369 0.654762
									CHANNELS 3 Xrotation Yrotation Zrotation
									JOINT mixamorig:LeftHandMiddle2
									{
										OFFSET 3.376106 0.152466 -0.003692
										CHANNELS 3 Xrotation Yrotation Zrotation
										JOINT mixamorig:LeftHandMiddle3
										{
											OFFSET 3.185104 -0.185410 -0.047914
											CHANNELS 3 Xrotation Yrotation Zrotation
											JOINT mixamorig:LeftHandMiddle4
											{
												OFFSET 2.742905 0.223846 0.010354
												CHANNELS 3 Xrotation Yrotation Zrotation
												End Site
												{
													OFFSET 2.742889 0.224251 0.006757
												}
											}
										}
									}
								}
								JOINT mixamorig:LeftHandRing1
								{
									OFFSET 7.508747 0.282753 -1.072900
									CHANNELS 3 Xrotation Yrotation Zrotation
									JOINT mixamorig:LeftHandRing2
									{
										OFFSET 2.821857 0.317802 -0.177266
										CHANNELS 3 Xrotation Yrotation Zrotation
										JOINT mixamorig:LeftHandRing3
										{
											OFFSET 2.672325 0.088310 -0.196165
											CHANNELS 3 Xrotation Yrotation Zrotation
											JOINT mixamorig:LeftHandRing4
											{
												OFFSET 2.272652 -0.053627 -0.183955
												CHANNELS 3 Xrotation Yrotation Zrotation
												End Site
												{
													OFFSET 2.272919 -0.054016 -0.180438
												}
											}
										}
									}
								}
								JOINT mixamorig:LeftHandPinky1
								{
									OFFSET 7.285820 0.522377 -2.660948
									CHANNELS 3 Xrotation Yrotation Zrotation
									JOINT mixamorig:LeftHandPinky2
									{
										OFFSET 2.466278 0.082008 -0.249570
										CHANNELS 3 Xrotation Yrotation Zrotation
										JOINT mixamorig:LeftHandPinky3
										{
											OFFSET 1.940475 0.021858 -0.202004
											CHANNELS 3 Xrotation Yrotation Zrotation
											JOINT mixamorig:LeftHandPinky4
											{
												OFFSET 1.645287 0.153595 -0.153405
												CHANNELS 3 Xrotation Yrotation Zrotation
												End Site
												{
													OFFSET 1.645088 0.153801 -0.155289
												}
											}
										}
									}
								}
							}
						}
					}
				}
				JOINT mixamorig:RightShoulder
				{
					OFFSET -3.414604 7.343132 -0.036860
					CHANNELS 3 Xrotation Yrotation Zrotation
					JOINT mixamorig:RightArm
					{
						OFFSET -6.829551 -2.246986 0.022068
						CHANNELS 3 Xrotation Yrotation Zrotation
						JOINT mixamorig:RightForeArm
						{
							OFFSET -24.198494 -0.424141 0.158696
							CHANNELS 3 Xrotation Yrotation Zrotation
							JOINT mixamorig:RightHand
							{
								OFFSET -21.584698 -0.002243 0.686977
								CHANNELS 3 Xrotation Yrotation Zrotation
								JOINT mixamorig:RightHandThumb1
								{
									OFFSET -2.242882 -1.296806 1.978855
									CHANNELS 3 Xrotation Yrotation Zrotation
									JOINT mixamorig:RightHandThumb2
									{
										OFFSET -1.794239 -1.037361 1.583064
										CHANNELS 3 Xrotation Yrotation Zrotation
										JOINT mixamorig:RightHandThumb3
										{
											OFFSET -2.504150 -0.962166 1.471556
											CHANNELS 3 Xrotation Yrotation Zrotation
											JOINT mixamorig:RightHandThumb4
											{
												OFFSET -2.346046 -0.743172 0.992235
												CHANNELS 3 Xrotation Yrotation Zrotation
												End Site
												{
													OFFSET -2.157112 -0.792709 1.326359
												}
											}
										}
									}
								}
								JOINT mixamorig:RightHandIndex1
								{
									OFFSET -7.174488 -0.001839 2.366265
									CHANNELS 3 Xrotation Yrotation Zrotation
									JOINT mixamorig:RightHandIndex2
									{
										OFFSET -2.935219 -0.016853 0.287245
										CHANNELS 3 Xrotation Yrotation Zrotation
										JOINT mixamorig:RightHandIndex3
										{
											OFFSET -2.786827 -0.129890 0.255971
											CHANNELS 3 Xrotation Yrotation Zrotation
											JOINT mixamorig:RightHandIndex4
											{
												OFFSET -2.343559 0.168816 0.256164
												CHANNELS 3 Xrotation Yrotation Zrotation
												End Site
												{
													OFFSET -2.344208 0.169510 0.249690
												}
											}
										}
									}
								}
								JOINT mixamorig:RightHandMiddle1
								{
									OFFSET -7.274693 0.327965 0.656181
									CHANNELS 3 Xrotation Yrotation Zrotation
									JOINT mixamorig:RightHandMiddle2
									{
										OFFSET -3.309677 0.091591 0.032863
										CHANNELS 3 Xrotation Yrotation Zrotation
										JOINT mixamorig:RightHandMiddle3
										{
											OFFSET -3.186844 -0.122513 0.000971
											CHANNELS 3 Xrotation Yrotation Zrotation
											JOINT mixamorig:RightHandMiddle4
											{
												OFFSET -2.671951 -0.322540 -0.031001
												CHANNELS 3 Xrotation Yrotation Zrotation
												End Site
												{
													OFFSET -2.671928 -0.323486 -0.021820
												}
											}
										}
									}
								}
								JOINT mixamorig:RightHandRing1
								{
									OFFSET -7.453640 0.430428 -1.170334
									CHANNELS 3 Xrotation Yrotation Zrotation
									JOINT mixamorig:RightHandRing2
									{
										OFFSET -2.808174 0.165817 -0.117934
										CHANNELS 3 Xrotation Yrotation Zrotation
										JOINT mixamorig:RightHandRing3
										{
											OFFSET -2.730080 0.127754 -0.119542
											CHANNELS 3 Xrotation Yrotation Zrotation
											JOINT mixamorig:RightHandRing4
											{
												OFFSET -2.349426 0.078133 -0.107466
												CHANNELS 3 Xrotation Yrotation Zrotation
												End Site
												{
													OFFSET -2.349503 0.077988 -0.106043
												}
											}
										}
									}
								}
								JOINT mixamorig:RightHandPinky1
								{
									OFFSET -7.364456 0.463486 -2.604800
									CHANNELS 3 Xrotation Yrotation Zrotation
									JOINT mixamorig:RightHandPinky2
									{
										OFFSET -2.430134 0.174614 -0.251330
										CHANNELS 3 Xrotation Yrotation Zrotation
										JOINT mixamorig:RightHandPinky3
										{
											OFFSET -1.953583 0.007492 -0.220999
											CHANNELS 3 Xrotation Yrotation Zrotation
											JOINT mixamorig:RightHandPinky4
											{
												OFFSET -1.582039 0.276558 -0.139972
												CHANNELS 3 Xrotation Yrotation Zrotation
												End Site
												{
													OFFSET -1.581284 0.277252 -0.147002
												}
											}
										}
									}
								}
							}
						}
					}
				}
			}
		}
	}
	JOINT mixamorig:LeftUpLeg
	{
		OFFSET 6.620181 -8.816864 -0.447179
		CHANNELS 3 Xrotation Yrotation Zrotation
		JOINT mixamorig:LeftLeg
		{
			OFFSET 2.748989 -36.076775 0.650871
			CHANNELS 3 Xrotation Yrotation Zrotation
			JOINT mixamorig:LeftFoot
			{
				OFFSET 1.089303 -46.239017 1.019056
				CHANNELS 3 Xrotation Yrotation Zrotation
				JOINT mixamorig:LeftToeBase
				{
					OFFSET -0.371088 -10.380511 12.650617
					CHANNELS 3 Xrotation Yrotation Zrotation
					JOINT mixamorig:LeftToe_End
					{
						OFFSET -0.094684 -0.116785 6.663326
						CHANNELS 3 Xrotation Yrotation Zrotation
						End Site
						{
							OFFSET -0.094684 -0.116785 6.663326
						}
					}
				}
			}
		}
	}
	JOINT mixamorig:RightUpLeg
	{
		OFFSET -6.620174 -8.816818 -0.447182
		CHANNELS 3 Xrotation Yrotation Zrotation
		JOINT mixamorig:RightLeg
		{
			OFFSET -2.748991 -36.076790 0.753614
			CHANNELS 3 Xrotation Yrotation Zrotation
			JOINT mixamorig:RightFoot
			{
				OFFSET -1.089311 -46.239029 0.372114
				CHANNELS 3 Xrotation Yrotation Zrotation
				JOINT mixamorig:RightToeBase
				{
					OFFSET 0.371103 -10.380659 13.284531
					CHANNELS 3 Xrotation Yrotation Zrotation
					JOINT mixamorig:RightToe_End
					{
						OFFSET 0.094689 -0.116865 6.675873
						CHANNELS 3 Xrotation Yrotation Zrotation
						End Site
						{
							OFFSET 0.094687 -0.116865 6.675871
						}
					}
				}
			}
		}
	}
}
MOTION
Frames: 4
Frame Time: 0.016667
0.243255 100.894669 1.816529 -3.605300 -8.029461 -2.287342 7.300700 0.817022 1.997480 0.397055 0.180802 -2.706621 0.403037 0.138435 -2.707930 4.478269 -0.654895 2.899570 8.897856 0.323029 0.799569 0.000000 -0.000001 -0.000000 0.410963 1.346407 -3.702405 9.124726 -42.269380 -55.026668 -0.540708 -1.692328 -1.016245 -1.693697 2.537768 5.797602 -0.277641 20.528364 11.465045 6.142947 4.643238 0.654924 2.590967 1.056218 3.502082 0.000001 -0.000001 -0.000000 0.855541 2.142711 -8.570556 2.946008 4.860124 -23.022870 0.962488 2.054923 -9.386714 0.000002 -0.000001 0.000001 0.348087 -2.604159 -11.435816 0.079412 2.054827 -6.676897 0.328454 3.089510 -16.989674 0.000005 0.000001 -0.000001 -0.200967 -5.615970 -17.290496 -0.852243 4.804630 -19.333672 -0.372985 1.553479 -5.740288 0.000000 0.000000 -0.000001 0.154850 -3.673731 -12.680052 -0.808985 -1.568841 -10.763591 -1.154269 2.775000 -13.549894 -0.000004 0.000000 -0.000001 -0.468605 14.786934 17.989853 15.670440 39.713606 44.251382 -0.949201 3.429059 1.042822 -20.769977 -0.354241 -5.062197 -1.331584 -19.841915 -11.843895 9.240203 -4.394797 2.690227 3.416462 1.858708 -1.668904 -0.000001 -0.000000 0.000004 -0.540668 1.568767 9.011856 1.470971 -2.601110 11.883067 2.206687 -3.032632 17.614686 0.000000 -0.000000 -0.000000 0.380637 2.266653 9.878348 0.293377 -2.469270 10.464718 0.184592 -1.635650 6.211482 -0.000002 0.000000 -0.000000 0.019099 5.214994 11.697583 -0.388070 -2.936639 13.527853 -0.345910 -2.205501 10.107186 -0.000003 0.000001 -0.000000 0.538888 5.760111 11.776748 -0.989212 -2.463359 10.310883 -1.696613 -3.957940 20.382732 -0.000000 0.000000 0.000001 -5.999002 -2.721716 -1.581943 24.854007 6.492559 -2.416629 -16.545211 17.378930 3.665712 -0.508156 -0.000004 0.000004 0.000000 0.000000 -0.000000 -4.424824 -1.001507 4.403725 21.278961 -3.779151 0.304775 -13.167533 6.083969 -2.158167 -0.756231 0.000007 0.000002 -0.000000 0.000000 -0.000000 
0.175738 100.748169 1.879133 -3.367597 -8.291393 -2.237193 7.591057 0.637839 1.652971 0.402046 0.158064 -2.724859 0.406934 0.114040 -2.726033 4.626796 -0.669795 3.056250 8.959107 0.402281 0.944551 -0.000001 0.000001 -0.000000 0.395403 1.056110 -3.036270 9.711177 -40.593587 -55.928335 -0.596620 -1.966452 -1.019514 -1.337866 0.924394 7.220499 -0.195839 20.352132 11.320355 6.144089 4.645399 0.656546 2.592092 1.058450 3.503706 0.000003 0.000003 0.000002 0.806433 2.051057 -8.146608 2.873599 4.782598 -22.587603 0.944069 2.022094 -9.233438 0.000000 0.000000 0.000001 0.334069 -2.699444 -11.012509 0.074155 2.005804 -6.459203 0.320510 3.055645 -16.835935 0.000002 -0.000000 0.000000 -0.192729 -5.715209 -16.866496 -0.850292 4.704259 -18.903351 -0.364742 1.518970 -5.587324 0.000000 -0.000001 0.000000 0.149323 -3.760644 -12.299315 -0.782124 -1.670384 -10.340985 -1.145320 2.737630 -13.397910 0.000000 -0.000000 0.000001 -0.451231 14.999696 17.660152 15.797128 39.373537 45.159763 -1.071964 4.028307 1.054123 -19.085063 0.687811 -5.947380 -1.277887 -19.716226 -11.751680 9.165491 -4.327017 2.722048 3.343803 1.931660 -1.635503 -0.000002 -0.000003 0.000001 -0.508840 1.486005 8.820542 1.440586 -2.560648 11.671370 2.181698 -3.003743 17.452207 -0.000004 -0.000001 -0.000001 0.374109 2.300614 9.716625 0.283487 -2.425169 10.252747 0.178614 -1.601595 6.049353 0.000001 0.000000 -0.000000 0.020897 5.249958 11.535527 -0.387309 -2.890938 13.316457 -0.343431 -2.170633 9.945384 -0.000003 0.000000 0.000001 0.510797 5.882524 11.635147 -0.973267 -2.416464 10.100964 -1.689279 -3.920012 20.222182 0.000004 -0.000001 0.000001 -6.771873 -3.831556 -1.701387 25.780037 7.893852 -2.982379 -17.002938 18.703879 3.673858 -0.731056 -0.000002 0.000000 0.000000 0.000001 0.000000 -5.328170 -0.607319 4.478506 22.376548 -3.552002 0.442303 -13.639401 4.758321 -2.363167 -1.030168 -0.000001 0.000001 -0.000000 0.000000 0.000000 
0.081294 100.612434 1.939865 -3.148044 -8.526222 -2.178034 7.908422 0.514078 1.385364 0.410126 0.143889 -2.742513 0.414297 0.097912 -2.743642 4.765588 -0.701793 3.159385 9.129093 0.354208 1.000759 0.000002 0.000001 -0.000000 0.388410 0.841100 -2.520474 10.223174 -39.286565 -56.585672 -0.666527 -2.309127 -1.023981 -0.795685 -0.517175 8.561881 -0.113584 20.172841 11.173607 6.146311 4.649661 0.659724 2.594315 1.062795 3.506912 -0.000000 0.000001 -0.000001 0.761766 1.966341 -7.756147 2.807413 4.710680 -22.186715 0.927193 1.991864 -9.092375 -0.000003 -0.000001 0.000001 0.321760 -2.787275 -10.622508 0.069521 1.960636 -6.258887 0.313234 3.024422 -16.694476 0.000005 0.000000 -0.000000 -0.184462 -5.806569 -16.475777 -0.847838 4.611804 -18.506939 -0.357060 1.487263 -5.446604 0.000001 0.000001 0.000000 0.144752 -3.840744 -11.948548 -0.756731 -1.763786 -9.951545 -1.136981 2.703244 -13.258033 0.000002 0.000001 -0.000000 -0.439290 15.004963 17.543918 15.894960 39.209678 45.695922 -1.194611 4.626171 1.066778 -17.782187 1.434841 -6.749780 -1.223893 -19.588889 -11.658463 9.089856 -4.258522 2.754244 3.270275 2.005413 -1.601771 -0.000001 0.000001 -0.000002 -0.489633 1.439091 8.636251 1.415284 -2.526741 11.494504 2.156488 -2.974443 17.287714 0.000004 0.000000 -0.000001 0.367582 2.335022 9.552919 0.275315 -2.388298 10.075629 0.172685 -1.567085 5.885206 -0.000002 0.000001 0.000000 0.022820 5.285364 11.371472 -0.386567 -2.852766 13.139815 -0.340800 -2.135330 9.781588 0.000003 0.000000 -0.000000 0.492636 5.979014 11.485332 -0.959812 -2.377312 9.925564 -1.681715 -3.881626 20.059634 0.000001 -0.000000 0.000000 -7.440327 -4.798759 -1.678805 26.608921 9.075271 -3.668790 -17.416436 19.829176 3.707156 -0.929269 -0.000000 0.000001 0.000000 0.000002 0.000000 -6.137437 -0.267234 4.569744 23.355424 -3.412303 0.532554 -14.072659 3.641793 -2.531298 -1.250744 -0.000002 0.000004 0.000000 -0.000001 0.000000 
-0.083432 100.512466 1.996773 -2.967892 -8.707010 -2.074291 8.252101 0.422458 1.184504 0.417325 0.134426 -2.756514 0.420987 0.086340 -2.757654 4.903296 -0.742354 3.221114 9.373873 0.232343 0.978379 -0.000001 -0.000000 -0.000000 0.386400 0.680959 -2.132255 10.638751 -38.228535 -57.060620 -0.745268 -2.694788 -1.029530 -0.132290 -1.787296 9.837942 -0.031250 19.991276 11.025422 6.149297 4.655407 0.664022 2.597304 1.068655 3.511184 0.000003 0.000004 0.000002 0.720997 1.887665 -7.395030 2.746656 4.643764 -21.816015 0.911641 1.963868 -8.961970 0.000001 -0.000000 0.000001 0.310921 -2.868614 -10.261754 0.065343 1.918916 -6.073706 0.306622 2.995545 -16.563702 -0.000000 -0.000000 0.000001 -0.176253 -5.891019 -16.114291 -0.844964 4.526290 -18.140311 -0.349927 1.457952 -5.316458 0.000001 -0.000001 0.000000 0.140936 -3.914850 -11.624056 -0.732645 -1.850027 -9.591261 -1.129197 2.671490 -13.128704 0.000001 0.000000 0.000000 -0.432030 14.884553 17.562551 15.930043 39.181349 45.982855 -1.304217 5.159482 1.079066 -16.757236 1.987384 -7.403291 -1.169848 -19.460387 -11.564577 9.013574 -4.189462 2.786729 3.196031 2.079677 -1.567779 0.000001 -0.000004 -0.000003 -0.477458 1.412069 8.455487 1.395565 -2.500139 11.355948 2.131163 -2.944790 17.121800 0.000001 0.000000 -0.000000 0.361123 2.369751 9.387742 0.269013 -2.359376 9.936913 0.166795 -1.532274 5.719577 0.000003 0.000000 0.000000 0.024877 5.321071 11.205934 -0.385903 -2.822837 13.001461 -0.338037 -2.099731 9.616304 0.000002 0.000000 -0.000000 0.480073 6.061188 11.330563 -0.949176 -2.346666 9.788173 -1.674026 -3.842937 19.895627 0.000002 -0.000001 0.000001 -7.817545 -5.415711 -1.353489 27.130946 9.828692 -4.629508 -17.735795 20.387027 3.852011 -1.012323 -0.000009 0.000003 0.000000 0.000000 -0.000000 -6.750699 -0.091267 4.692944 24.090907 -3.529811 0.469861 -14.410642 3.118426 -2.595236 -1.301047 0.000006 0.000001 -0.000000 -0.000000 0.000000 
